<!DOCTYPE svg PUBLIC "-//W3C//DTD SVG 1.1//EN" "http://www.w3.org/Graphics/SVG/1.1/DTD/svg11.dtd">
<!-- Uploaded to: SVG Repo, www.svgrepo.com, Transformed by: SVG Repo Mixer Tools -->
<svg height="800px" width="800px" version="1.1" id="Layer_1" xmlns="http://www.w3.org/2000/svg" xmlns:xlink="http://www.w3.org/1999/xlink" viewBox="0 0 512 512" xml:space="preserve" fill="#000000">
<g id="SVGRepo_bgCarrier" stroke-width="0"/>
<g id="SVGRepo_tracerCarrier" stroke-linecap="round" stroke-linejoin="round"/>
<g id="SVGRepo_iconCarrier"> <circle style="fill:#5ec576;" cx="256" cy="256" r="256"/> <path style="fill:#F2C53F;" d="M369.247,481.777c0,16.724-50.77,30.223-113.366,30.223s-113.366-13.499-113.366-30.223v-30.223 h113.366h113.366V481.777z"/> <path style="fill:#FFE356;" d="M255.881,426.587c62.596,0,113.366,12.424,113.366,27.595c0,15.291-50.77,27.595-113.366,27.595 s-113.366-12.424-113.366-27.595C142.514,438.891,193.284,426.587,255.881,426.587z"/> <path style="fill:#F2C53F;" d="M350.372,437.697c0,16.724-50.77,30.223-113.366,30.223S123.64,454.421,123.64,437.697v-30.223 h113.366h113.366V437.697z"/> <path style="fill:#FFE356;" d="M237.006,382.507c62.596,0,113.366,12.424,113.366,27.595c0,15.291-50.77,27.595-113.366,27.595 S123.64,425.273,123.64,410.102C123.64,394.811,174.41,382.507,237.006,382.507z"/> <path style="fill:#F2C53F;" d="M388.719,385.135c0,16.724-50.77,30.223-113.366,30.223s-113.366-13.499-113.366-30.223v-30.223 h113.366h113.366V385.135z"/> <path style="fill:#FFE356;" d="M275.352,329.945c62.596,0,113.366,12.424,113.366,27.595c0,15.291-50.77,27.595-113.366,27.595 s-113.366-12.424-113.366-27.595C161.986,342.249,212.756,329.945,275.352,329.945z"/> <path style="fill:#F2C53F;" d="M423.362,342.249c0,16.724-50.77,30.223-113.366,30.223s-113.366-13.499-113.366-30.223v-30.223 h113.366h113.366V342.249z"/> <path style="fill:#FFE356;" d="M309.995,287.059c62.596,0,113.366,12.424,113.366,27.595c0,15.291-50.77,27.595-113.366,27.595 s-113.366-12.424-113.366-27.595C196.629,299.364,247.399,287.059,309.995,287.059z"/> <path style="fill:#F2C53F;" d="M388.719,294.346c0,16.724-50.77,30.223-113.366,30.223s-113.366-13.499-113.366-30.223v-30.223 h113.366h113.366V294.346z"/> <path style="fill:#FFE356;" d="M275.352,239.156c62.596,0,113.366,12.424,113.366,27.595c0,15.291-50.77,27.595-113.366,27.595 s-113.366-12.424-113.366-27.595C161.986,251.461,212.756,239.156,275.352,239.156z"/> <path style="fill:#F2C53F;" d="M351.209,245.846c0,16.724-50.77,30.223-113.366,30.223s-113.366-13.499-113.366-30.223v-30.223 h113.366h113.366V245.846z"/> <path style="fill:#FFE356;" d="M237.723,190.656c62.596,0,113.366,12.424,113.366,27.595c0,15.291-50.77,27.595-113.366,27.595 s-113.366-12.424-113.366-27.595C124.357,202.96,175.126,190.656,237.723,190.656z"/> <path style="fill:#F2C53F;" d="M381.073,204.035c0,16.724-50.77,30.223-113.366,30.223s-113.366-13.499-113.366-30.223v-30.223 h113.366h113.366V204.035z"/> <path style="fill:#FFE356;" d="M267.707,148.846c62.596,0,113.366,12.424,113.366,27.595c0,15.291-50.77,27.595-113.366,27.595 s-113.366-12.424-113.366-27.595C154.341,161.15,205.111,148.846,267.707,148.846z"/> <path style="fill:#FFFFFF;" d="M234.856,193.523c7.048,1.434,14.216,2.15,21.264,2.509c7.168,0.239,13.618,0,19.711-0.836 c5.973-0.836,10.99-2.031,15.052-3.584c3.225-1.314,5.376-2.628,6.57-4.062c1.075-1.434,1.195-2.867,0.239-4.301 c-0.836-1.434-2.509-2.628-4.898-3.823c-2.389-1.195-5.973-2.748-10.632-4.539l22.1-8.72c4.42,1.911,5.256,3.942,2.389,6.092 c-2.389,1.792-1.314,3.225,3.345,4.301c2.389,0.597,5.137,0.836,8.123,0.717s5.376-0.478,7.168-1.195 c1.553-0.597,2.748-1.434,3.584-2.509c0.717-1.075,0.956-2.15,0.717-3.345c-0.358-1.553-1.672-2.986-4.062-4.301 c-2.389-1.314-5.973-2.628-10.512-3.942l5.734-2.27c2.867-1.195,2.867-2.031-0.119-2.748s-5.973-0.478-8.84,0.717l-5.615,2.27 c-10.273-2.031-19.95-2.867-29.028-2.509c-8.959,0.358-16.605,1.792-22.697,4.181c-4.659,1.911-7.168,3.703-7.526,5.495 c-0.358,1.792,0.717,3.464,3.345,5.137c2.628,1.672,6.331,3.464,11.349,5.376l-24.728,9.796c-2.509-0.956-3.942-2.031-4.659-2.867 c-0.597-0.956-0.597-1.792,0-2.628s1.792-2.031,3.345-3.464c0.717-0.717,0.836-1.314,0.119-1.911 c-0.717-0.597-2.15-1.195-4.301-1.672c-2.628-0.597-5.495-0.836-8.601-0.717s-5.495,0.478-7.168,1.195 c-2.27,0.956-4.062,2.031-5.137,3.225c-1.075,1.195-1.314,2.628-0.836,4.181c0.478,1.553,2.15,3.106,4.659,4.539 c2.628,1.553,6.451,3.106,11.468,4.539h-0.119l-3.225,1.314c-1.911,0.717-1.434,1.792,1.075,2.389l0,0 c2.509,0.597,5.973,0.478,7.884-0.358l3.464-1.434V193.523z M275.233,171.782l20.308-8.123c-4.778-0.597-9.079-0.836-12.663-0.717 c-3.703,0.119-6.929,0.717-9.915,1.792c-2.748,1.075-3.823,2.15-3.225,3.225s2.509,2.27,5.495,3.703V171.782z M268.424,180.144 l-23.294,9.198c5.376,0.836,10.512,1.075,15.291,0.836c4.778-0.239,8.482-0.956,11.468-2.15c3.106-1.195,4.181-2.509,3.345-3.703 c-0.836-1.195-3.106-2.628-6.809-4.301V180.144z"/> </g>
</svg>